<svg width="632" height="8" viewBox="0 0 632 8" fill="none" xmlns="http://www.w3.org/2000/svg">
<path d="M7.31789 8.00099C7.37815 8.0038 7.43724 7.98455 7.48277 7.94727C7.52831 7.90999 7.55676 7.85757 7.56217 7.80099V3.48099C7.55951 3.45336 7.55106 3.42651 7.53732 3.40197C7.52357 3.37744 7.5048 3.35571 7.48209 3.33805C7.45938 3.32038 7.43317 3.30713 7.40499 3.29905C7.37681 3.29097 7.3472 3.28823 7.31789 3.29099H1.90116C1.88426 3.29099 1.86805 3.28467 1.8561 3.27341C1.84415 3.26216 1.83744 3.2469 1.83744 3.23099V1.49099C1.83725 1.47403 1.84361 1.45759 1.85533 1.44471C1.86705 1.43184 1.88334 1.42341 1.90116 1.42099H15.581C15.581 1.42099 15.6448 1.42099 15.6448 1.49099V3.23099C15.6448 3.2469 15.6381 3.26216 15.6261 3.27341C15.6142 3.28467 15.5979 3.29099 15.581 3.29099H10.1749C10.1146 3.2853 10.0542 3.30194 10.0066 3.3374C9.95907 3.37286 9.92801 3.42436 9.92004 3.48099V7.80099C9.9227 7.82992 9.93143 7.85807 9.94571 7.88382C9.95999 7.90956 9.97954 7.93239 10.0032 7.95098C10.0269 7.96958 10.0543 7.98357 10.0838 7.99215C10.1133 8.00073 10.1442 8.00374 10.1749 8.00099H27.1686C27.2289 8.0038 27.2879 7.98455 27.3335 7.94727C27.379 7.90999 27.4075 7.85757 27.4129 7.80099V3.48099C27.4102 3.45336 27.4018 3.42651 27.388 3.40197C27.3743 3.37744 27.3555 3.35571 27.3328 3.33805C27.3101 3.32038 27.2839 3.30713 27.2557 3.29905C27.2275 3.29097 27.1979 3.28823 27.1686 3.29099H21.7519C21.735 3.29099 21.7188 3.28467 21.7068 3.27341C21.6948 3.26216 21.6881 3.2469 21.6881 3.23099V1.49099C21.688 1.47403 21.6943 1.45759 21.706 1.44471C21.7177 1.43184 21.734 1.42341 21.7519 1.42099H35.4848C35.5046 1.42099 35.5235 1.42836 35.5374 1.44149C35.5514 1.45462 35.5592 1.47242 35.5592 1.49099V3.23099C35.5566 3.24777 35.5477 3.2631 35.534 3.27414C35.5203 3.28517 35.5029 3.29116 35.4848 3.29099H30.0787C30.0494 3.28823 30.0198 3.29097 29.9916 3.29905C29.9635 3.30713 29.9373 3.32038 29.9145 3.33805C29.8918 3.35571 29.8731 3.37744 29.8593 3.40197C29.8456 3.42651 29.8371 3.45336 29.8345 3.48099V7.80099C29.8399 7.85757 29.8683 7.90999 29.9139 7.94727C29.9594 7.98455 30.0185 8.0038 30.0787 8.00099H47.0724C47.1031 8.00374 47.1341 8.00073 47.1635 7.99215C47.193 7.98357 47.2204 7.96958 47.2441 7.95098C47.2678 7.93239 47.2873 7.90956 47.3016 7.88382C47.3159 7.85807 47.3246 7.82992 47.3273 7.80099V3.48099C47.3193 3.42436 47.2883 3.37286 47.2407 3.3374C47.1931 3.30194 47.1328 3.2853 47.0724 3.29099H41.7194C41.7025 3.29099 41.6863 3.28467 41.6743 3.27341C41.6624 3.26216 41.6557 3.2469 41.6557 3.23099V1.49099C41.6557 1.49099 41.6557 1.42099 41.7194 1.42099H55.3993C55.4171 1.42341 55.4334 1.43184 55.4451 1.44471C55.4568 1.45759 55.4632 1.47403 55.463 1.49099V3.23099C55.463 3.2469 55.4563 3.26216 55.4443 3.27341C55.4324 3.28467 55.4162 3.29099 55.3993 3.29099H49.9825C49.9532 3.28823 49.9236 3.29097 49.8954 3.29905C49.8673 3.30713 49.8411 3.32038 49.8183 3.33805C49.7956 3.35571 49.7769 3.37744 49.7631 3.40197C49.7494 3.42651 49.7409 3.45336 49.7383 3.48099V7.80099C49.7437 7.85757 49.7721 7.90999 49.8177 7.94727C49.8632 7.98455 49.9223 8.0038 49.9825 8.00099H67.0399C67.1002 8.0038 67.1593 7.98455 67.2048 7.94727C67.2503 7.90999 67.2788 7.85757 67.2842 7.80099V3.48099C67.2763 3.42621 67.2467 3.37625 67.2015 3.34105C67.1562 3.30584 67.0985 3.28797 67.0399 3.29099H61.6019C61.5964 3.28187 61.5934 3.27152 61.5934 3.26099C61.5934 3.25046 61.5964 3.24011 61.6019 3.23099V1.49099C61.5954 1.48035 61.592 1.46828 61.592 1.45599C61.592 1.4437 61.5954 1.43163 61.6019 1.42099H75.3031C75.3209 1.42341 75.3372 1.43184 75.3489 1.44471C75.3606 1.45759 75.367 1.47403 75.3668 1.49099V3.23099C75.3668 3.23887 75.3651 3.24667 75.3619 3.25395C75.3587 3.26123 75.354 3.26784 75.3481 3.27341C75.3422 3.27899 75.3352 3.28341 75.3275 3.28642C75.3197 3.28944 75.3114 3.29099 75.3031 3.29099H69.8864C69.8277 3.28797 69.77 3.30584 69.7248 3.34105C69.6795 3.37625 69.65 3.42621 69.6421 3.48099V7.80099C69.6475 7.85757 69.6759 7.90999 69.7215 7.94727C69.767 7.98455 69.8261 8.0038 69.8864 8.00099H86.9437C87.004 8.0038 87.0631 7.98455 87.1086 7.94727C87.1541 7.90999 87.1826 7.85757 87.188 7.80099V3.48099C87.1853 3.45336 87.1769 3.42651 87.1631 3.40197C87.1494 3.37744 87.1306 3.35571 87.1079 3.33805C87.0852 3.32038 87.059 3.30713 87.0308 3.29905C87.0026 3.29097 86.973 3.28823 86.9437 3.29099H81.527C81.5101 3.29099 81.4939 3.28467 81.4819 3.27341C81.47 3.26216 81.4633 3.2469 81.4633 3.23099V1.49099C81.4631 1.47403 81.4694 1.45759 81.4812 1.44471C81.4929 1.43184 81.5092 1.42341 81.527 1.42099H95.2069C95.2069 1.42099 95.2706 1.42099 95.2706 1.49099V3.23099C95.2706 3.2469 95.2639 3.26216 95.2519 3.27341C95.24 3.28467 95.2238 3.29099 95.2069 3.29099H89.8008C89.7404 3.2853 89.68 3.30194 89.6325 3.3374C89.5849 3.37286 89.5538 3.42436 89.5459 3.48099V7.80099C89.5485 7.82992 89.5573 7.85807 89.5715 7.88382C89.5858 7.90956 89.6054 7.93239 89.6291 7.95098C89.6528 7.96958 89.6801 7.98357 89.7096 7.99215C89.7391 8.00073 89.7701 8.00374 89.8008 8.00099H106.794C106.855 8.0038 106.914 7.98455 106.959 7.94727C107.005 7.90999 107.033 7.85757 107.039 7.80099V3.48099C107.036 3.45336 107.028 3.42651 107.014 3.40197C107 3.37744 106.981 3.35571 106.959 3.33805C106.936 3.32038 106.91 3.30713 106.882 3.29905C106.853 3.29097 106.824 3.28823 106.794 3.29099H101.431C101.414 3.29099 101.398 3.28467 101.386 3.27341C101.374 3.26216 101.367 3.2469 101.367 3.23099V1.49099C101.367 1.47403 101.373 1.45759 101.385 1.44471C101.397 1.43184 101.413 1.42341 101.431 1.42099H115.121C115.139 1.42341 115.155 1.43184 115.167 1.44471C115.179 1.45759 115.185 1.47403 115.185 1.49099V3.23099C115.185 3.2469 115.178 3.26216 115.166 3.27341C115.154 3.28467 115.138 3.29099 115.121 3.29099H109.705C109.675 3.28823 109.646 3.29097 109.617 3.29905C109.589 3.30713 109.563 3.32038 109.54 3.33805C109.518 3.35571 109.499 3.37744 109.485 3.40197C109.471 3.42651 109.463 3.45336 109.46 3.48099V7.80099C109.466 7.85757 109.494 7.90999 109.54 7.94727C109.585 7.98455 109.644 8.0038 109.705 8.00099H126.698C126.729 8.00374 126.76 8.00073 126.789 7.99215C126.819 7.98357 126.846 7.96958 126.87 7.95098C126.894 7.93239 126.913 7.90956 126.927 7.88382C126.942 7.85807 126.95 7.82992 126.953 7.80099V3.48099C126.945 3.42436 126.914 3.37286 126.867 3.3374C126.819 3.30194 126.759 3.2853 126.698 3.29099H121.292C121.275 3.29099 121.259 3.28467 121.247 3.27341C121.235 3.26216 121.228 3.2469 121.228 3.23099V1.49099C121.228 1.49099 121.228 1.42099 121.292 1.42099H134.972C134.99 1.42341 135.006 1.43184 135.018 1.44471C135.03 1.45759 135.036 1.47403 135.036 1.49099V3.23099C135.036 3.2469 135.029 3.26216 135.017 3.27341C135.005 3.28467 134.989 3.29099 134.972 3.29099H129.577C129.547 3.28823 129.518 3.29097 129.489 3.29905C129.461 3.30713 129.435 3.32038 129.412 3.33805C129.39 3.35571 129.371 3.37744 129.357 3.40197C129.343 3.42651 129.335 3.45336 129.332 3.48099V7.80099C129.338 7.85757 129.366 7.90999 129.412 7.94727C129.457 7.98455 129.516 8.0038 129.577 8.00099H146.634C146.694 8.0038 146.753 7.98455 146.799 7.94727C146.844 7.90999 146.873 7.85757 146.878 7.80099V3.48099C146.87 3.42621 146.841 3.37625 146.795 3.34105C146.75 3.30584 146.693 3.28797 146.634 3.29099H141.26C141.243 3.29099 141.227 3.28467 141.215 3.27341C141.203 3.26216 141.196 3.2469 141.196 3.23099V1.49099C141.196 1.49099 141.196 1.42099 141.26 1.42099H154.94C154.957 1.42341 154.974 1.43184 154.985 1.44471C154.997 1.45759 155.003 1.47403 155.003 1.49099V3.23099C155.003 3.2469 154.997 3.26216 154.985 3.27341C154.973 3.28467 154.956 3.29099 154.94 3.29099H149.523C149.464 3.28797 149.406 3.30584 149.361 3.34105C149.316 3.37625 149.286 3.42621 149.279 3.48099V7.80099C149.284 7.85757 149.312 7.90999 149.358 7.94727C149.403 7.98455 149.463 8.0038 149.523 8.00099H156.565C156.625 8.0038 156.684 7.98455 156.729 7.94727C156.775 7.90999 156.803 7.85757 156.809 7.80099V6.80099C156.806 6.77336 156.798 6.74651 156.784 6.72197C156.77 6.69744 156.751 6.67571 156.729 6.65805C156.706 6.64038 156.68 6.62713 156.652 6.61905C156.623 6.61097 156.594 6.60823 156.565 6.61099H151.148C151.13 6.60857 151.114 6.60013 151.102 6.58726C151.09 6.57439 151.084 6.55794 151.084 6.54099V4.77099C151.084 4.75507 151.091 4.73981 151.103 4.72856C151.115 4.71731 151.131 4.71099 151.148 4.71099H156.565C156.594 4.71374 156.623 4.711 156.652 4.70293C156.68 4.69485 156.706 4.68159 156.729 4.66393C156.751 4.64626 156.77 4.62454 156.784 4.6C156.798 4.57547 156.806 4.54861 156.809 4.52099V0.200988C156.803 0.144404 156.775 0.0919844 156.729 0.0547049C156.684 0.0174255 156.625 -0.00182367 156.565 0.000987686H139.571C139.511 -0.00182367 139.452 0.0174255 139.406 0.0547049C139.36 0.0919844 139.332 0.144404 139.327 0.200988V4.52099C139.329 4.54861 139.338 4.57547 139.351 4.6C139.365 4.62454 139.384 4.64626 139.407 4.66393C139.429 4.68159 139.456 4.69485 139.484 4.70293C139.512 4.711 139.542 4.71374 139.571 4.71099H144.988C145.005 4.71099 145.021 4.71731 145.033 4.72856C145.045 4.73981 145.051 4.75507 145.051 4.77099V6.51099C145.052 6.52794 145.045 6.54439 145.033 6.55726C145.022 6.57014 145.005 6.57857 144.988 6.58099H131.297C131.297 6.58099 131.233 6.58099 131.233 6.51099V4.77099C131.233 4.75507 131.24 4.73981 131.252 4.72856C131.264 4.71731 131.28 4.71099 131.297 4.71099H136.703C136.764 4.71668 136.824 4.70003 136.872 4.66457C136.919 4.62911 136.95 4.57762 136.958 4.52099V0.200988C136.955 0.172053 136.947 0.143901 136.932 0.118156C136.918 0.0924121 136.899 0.0695847 136.875 0.0509913C136.851 0.0323979 136.824 0.0184065 136.794 0.00982423C136.765 0.00124195 136.734 -0.00176132 136.703 0.000987686H119.656C119.596 -0.00182367 119.537 0.0174255 119.492 0.0547049C119.446 0.0919844 119.418 0.144404 119.412 0.200988V4.52099C119.415 4.54861 119.423 4.57547 119.437 4.6C119.451 4.62454 119.47 4.64626 119.492 4.66393C119.515 4.68159 119.541 4.69485 119.569 4.70293C119.598 4.711 119.627 4.71374 119.656 4.71099H125.073C125.09 4.71099 125.106 4.71731 125.118 4.72856C125.13 4.73981 125.137 4.75507 125.137 4.77099V6.51099C125.137 6.52794 125.131 6.54439 125.119 6.55726C125.107 6.57014 125.091 6.57857 125.073 6.58099H111.383C111.365 6.57857 111.349 6.57014 111.337 6.55726C111.325 6.54439 111.319 6.52794 111.319 6.51099V4.77099C111.319 4.75507 111.326 4.73981 111.338 4.72856C111.35 4.71731 111.366 4.71099 111.383 4.71099H116.831C116.861 4.71374 116.89 4.711 116.918 4.70293C116.947 4.69485 116.973 4.68159 116.995 4.66393C117.018 4.64626 117.037 4.62454 117.051 4.6C117.064 4.57547 117.073 4.54861 117.076 4.52099V0.200988C117.07 0.144404 117.042 0.0919844 116.996 0.0547049C116.951 0.0174255 116.892 -0.00182367 116.831 0.000987686H99.8376C99.8069 -0.00176132 99.7759 0.00124195 99.7465 0.00982423C99.717 0.0184065 99.6896 0.0323979 99.6659 0.0509913C99.6422 0.0695847 99.6227 0.0924121 99.6084 0.118156C99.5941 0.143901 99.5854 0.172053 99.5827 0.200988V4.52099C99.5907 4.57762 99.6218 4.62911 99.6693 4.66457C99.7169 4.70003 99.7773 4.71668 99.8376 4.71099H105.148C105.166 4.71081 105.184 4.7168 105.197 4.72784C105.211 4.73887 105.22 4.7542 105.223 4.77099V6.51099C105.223 6.52018 105.221 6.52928 105.217 6.53778C105.213 6.54627 105.208 6.55398 105.201 6.56048C105.194 6.56699 105.186 6.57214 105.177 6.57566C105.168 6.57918 105.158 6.58099 105.148 6.58099H91.4789C91.4611 6.57857 91.4448 6.57014 91.4331 6.55726C91.4213 6.54439 91.415 6.52794 91.4152 6.51099V4.77099C91.4152 4.75507 91.4219 4.73981 91.4338 4.72856C91.4458 4.71731 91.462 4.71099 91.4789 4.71099H96.8956C96.9249 4.71374 96.9545 4.711 96.9827 4.70293C97.0109 4.69485 97.0371 4.68159 97.0598 4.66393C97.0825 4.64626 97.1013 4.62454 97.115 4.6C97.1288 4.57547 97.1372 4.54861 97.1399 4.52099V0.200988C97.1345 0.144404 97.106 0.0919844 97.0605 0.0547049C97.015 0.0174255 96.9559 -0.00182367 96.8956 0.000987686H79.8382C79.778 -0.00182367 79.7189 0.0174255 79.6734 0.0547049C79.6278 0.0919844 79.5994 0.144404 79.594 0.200988V4.52099C79.6019 4.57576 79.6314 4.62572 79.6767 4.66093C79.7219 4.69613 79.7796 4.71401 79.8382 4.71099H85.255C85.2633 4.71099 85.2716 4.71254 85.2794 4.71555C85.2871 4.71857 85.2941 4.72299 85.3 4.72856C85.3059 4.73413 85.3106 4.74075 85.3138 4.74803C85.317 4.75531 85.3187 4.76311 85.3187 4.77099V6.51099C85.3187 6.51099 85.3187 6.58099 85.255 6.58099H71.5751C71.5573 6.57857 71.541 6.57014 71.5293 6.55726C71.5175 6.54439 71.5112 6.52794 71.5114 6.51099V4.77099C71.5114 4.75507 71.5181 4.73981 71.53 4.72856C71.542 4.71731 71.5582 4.71099 71.5751 4.71099H76.9918C77.0504 4.71401 77.1081 4.69613 77.1534 4.66093C77.1986 4.62572 77.2282 4.57576 77.2361 4.52099V0.200988C77.2307 0.144404 77.2022 0.0919844 77.1567 0.0547049C77.1112 0.0174255 77.0521 -0.00182367 76.9918 0.000987686H59.9344C59.8742 -0.00182367 59.8151 0.0174255 59.7696 0.0547049C59.724 0.0919844 59.6956 0.144404 59.6902 0.200988V4.52099C59.6928 4.54861 59.7013 4.57547 59.715 4.6C59.7288 4.62454 59.7475 4.64626 59.7702 4.66393C59.793 4.68159 59.8192 4.69485 59.8473 4.70293C59.8755 4.711 59.9051 4.71374 59.9344 4.71099H65.3512C65.3681 4.71099 65.3843 4.71731 65.3962 4.72856C65.4082 4.73981 65.4149 4.75507 65.4149 4.77099V6.51099C65.4151 6.52794 65.4087 6.54439 65.397 6.55726C65.3853 6.57014 65.369 6.57857 65.3512 6.58099H51.6713C51.6713 6.58099 51.6076 6.58099 51.6076 6.51099V4.77099C51.6076 4.75507 51.6143 4.73981 51.6262 4.72856C51.6382 4.71731 51.6544 4.71099 51.6713 4.71099H57.0774C57.1089 4.71669 57.1413 4.71623 57.1726 4.70962C57.2039 4.70301 57.2335 4.6904 57.2594 4.67257C57.2853 4.65475 57.307 4.63209 57.3232 4.60601C57.3394 4.57993 57.3497 4.55099 57.3535 4.52099V0.200988C57.3509 0.172053 57.3421 0.143901 57.3279 0.118156C57.3136 0.0924121 57.294 0.0695847 57.2703 0.0509913C57.2466 0.0323979 57.2193 0.0184065 57.1898 0.00982423C57.1603 0.00124195 57.1293 -0.00176132 57.0986 0.000987686H40.0306C39.9704 -0.00182367 39.9113 0.0174255 39.8658 0.0547049C39.8202 0.0919844 39.7918 0.144404 39.7864 0.200988V4.52099C39.789 4.54861 39.7975 4.57547 39.8112 4.6C39.825 4.62454 39.8437 4.64626 39.8664 4.66393C39.8892 4.68159 39.9154 4.69485 39.9435 4.70293C39.9717 4.711 40.0013 4.71374 40.0306 4.71099H45.4474C45.4643 4.71099 45.4805 4.71731 45.4924 4.72856C45.5044 4.73981 45.5111 4.75507 45.5111 4.77099V6.51099C45.5113 6.52794 45.5049 6.54439 45.4932 6.55726C45.4815 6.57014 45.4652 6.57857 45.4474 6.58099H31.7569C31.739 6.57857 31.7228 6.57014 31.711 6.55726C31.6993 6.54439 31.693 6.52794 31.6931 6.51099V4.77099C31.6931 4.75507 31.6999 4.73981 31.7118 4.72856C31.7238 4.71731 31.74 4.71099 31.7569 4.71099H37.1736C37.2029 4.71374 37.2325 4.711 37.2607 4.70293C37.2889 4.69485 37.3151 4.68159 37.3378 4.66393C37.3605 4.64626 37.3793 4.62454 37.393 4.6C37.4068 4.57547 37.4152 4.54861 37.4179 4.52099V0.200988C37.4125 0.144404 37.384 0.0919844 37.3385 0.0547049C37.2929 0.0174255 37.2339 -0.00182367 37.1736 0.000987686H20.1799C20.1492 -0.00176132 20.1183 0.00124195 20.0888 0.00982423C20.0593 0.0184065 20.0319 0.0323979 20.0082 0.0509913C19.9845 0.0695847 19.965 0.0924121 19.9507 0.118156C19.9364 0.143901 19.9277 0.172053 19.925 0.200988V4.52099C19.933 4.57762 19.9641 4.62911 20.0116 4.66457C20.0592 4.70003 20.1196 4.71668 20.1799 4.71099H25.4905C25.5074 4.71099 25.5236 4.71731 25.5355 4.72856C25.5475 4.73981 25.5542 4.75507 25.5542 4.77099V6.51099C25.5542 6.51099 25.5542 6.58099 25.4905 6.58099H11.8531C11.8352 6.57857 11.819 6.57014 11.8072 6.55726C11.7955 6.54439 11.7892 6.52794 11.7893 6.51099V4.77099C11.7893 4.76311 11.791 4.75531 11.7942 4.74803C11.7974 4.74075 11.8021 4.73413 11.808 4.72856C11.8139 4.72299 11.8209 4.71857 11.8287 4.71555C11.8364 4.71254 11.8447 4.71099 11.8531 4.71099H17.2698C17.2991 4.71374 17.3287 4.711 17.3569 4.70293C17.3851 4.69485 17.4113 4.68159 17.434 4.66393C17.4567 4.64626 17.4755 4.62454 17.4892 4.6C17.503 4.57547 17.5114 4.54861 17.5141 4.52099V0.200988C17.5087 0.144404 17.4802 0.0919844 17.4347 0.0547049C17.3891 0.0174255 17.3301 -0.00182367 17.2698 0.000987686H0.244284C0.184016 -0.00182367 0.124931 0.0174255 0.0793967 0.0547049C0.0338628 0.0919844 0.00541174 0.144404 9.61346e-08 0.200988V4.52099C0.00266018 4.54861 0.0111065 4.57547 0.0248512 4.6C0.0385959 4.62454 0.0573666 4.64626 0.0800795 4.66393C0.102792 4.68159 0.128997 4.69485 0.157181 4.70293C0.185365 4.711 0.214969 4.71374 0.244284 4.71099H5.66101C5.67791 4.71099 5.69412 4.71731 5.70607 4.72856C5.71802 4.73981 5.72473 4.75507 5.72473 4.77099V6.51099C5.72492 6.52794 5.71856 6.54439 5.70684 6.55726C5.69512 6.57014 5.67883 6.57857 5.66101 6.58099H0.265526C0.231168 6.57964 0.196876 6.58485 0.164713 6.5963C0.13255 6.60776 0.103182 6.62522 0.0783751 6.64765C0.0535685 6.67007 0.0338367 6.69698 0.0203676 6.72677C0.00689839 6.75656 -2.97675e-05 6.78861 9.61346e-08 6.82099V8.00099" fill="white" fill-opacity="0.15"/>
<path d="M164.509 8.00099C164.569 8.0038 164.628 7.98455 164.674 7.94727C164.719 7.90999 164.748 7.85757 164.753 7.80099V3.48099C164.751 3.45336 164.742 3.42651 164.729 3.40197C164.715 3.37744 164.696 3.35571 164.673 3.33805C164.651 3.32038 164.624 3.30713 164.596 3.29905C164.568 3.29097 164.538 3.28823 164.509 3.29099H159.092C159.075 3.29099 159.059 3.28467 159.047 3.27341C159.035 3.26216 159.029 3.2469 159.029 3.23099V1.49099C159.028 1.47403 159.035 1.45759 159.047 1.44471C159.058 1.43184 159.075 1.42341 159.092 1.42099H172.772C172.772 1.42099 172.836 1.42099 172.836 1.49099V3.23099C172.836 3.2469 172.829 3.26216 172.817 3.27341C172.805 3.28467 172.789 3.29099 172.772 3.29099H167.366C167.306 3.2853 167.245 3.30194 167.198 3.3374C167.15 3.37286 167.119 3.42436 167.111 3.48099V7.80099C167.114 7.82992 167.123 7.85807 167.137 7.88382C167.151 7.90956 167.171 7.93239 167.194 7.95098C167.218 7.96958 167.245 7.98357 167.275 7.99215C167.304 8.00073 167.335 8.00374 167.366 8.00099H184.36C184.42 8.0038 184.479 7.98455 184.525 7.94727C184.57 7.90999 184.599 7.85757 184.604 7.80099V3.48099C184.601 3.45336 184.593 3.42651 184.579 3.40197C184.565 3.37744 184.547 3.35571 184.524 3.33805C184.501 3.32038 184.475 3.30713 184.447 3.29905C184.419 3.29097 184.389 3.28823 184.36 3.29099H178.943C178.926 3.29099 178.91 3.28467 178.898 3.27341C178.886 3.26216 178.879 3.2469 178.879 3.23099V1.49099C178.879 1.47403 178.885 1.45759 178.897 1.44471C178.909 1.43184 178.925 1.42341 178.943 1.42099H192.676C192.696 1.42099 192.715 1.42836 192.729 1.44149C192.743 1.45462 192.75 1.47242 192.75 1.49099V3.23099C192.748 3.24777 192.739 3.2631 192.725 3.27414C192.711 3.28517 192.694 3.29116 192.676 3.29099H187.27C187.241 3.28823 187.211 3.29097 187.183 3.29905C187.155 3.30713 187.128 3.32038 187.106 3.33805C187.083 3.35571 187.064 3.37744 187.05 3.40197C187.037 3.42651 187.028 3.45336 187.026 3.48099V7.80099C187.031 7.85757 187.06 7.90999 187.105 7.94727C187.151 7.98455 187.21 8.0038 187.27 8.00099H204.264C204.294 8.00374 204.325 8.00073 204.355 7.99215C204.384 7.98357 204.412 7.96958 204.435 7.95098C204.459 7.93239 204.479 7.90956 204.493 7.88382C204.507 7.85807 204.516 7.82992 204.518 7.80099V3.48099C204.51 3.42436 204.479 3.37286 204.432 3.3374C204.384 3.30194 204.324 3.2853 204.264 3.29099H198.911C198.894 3.29099 198.877 3.28467 198.866 3.27341C198.854 3.26216 198.847 3.2469 198.847 3.23099V1.49099C198.847 1.49099 198.847 1.42099 198.911 1.42099H212.59C212.608 1.42341 212.625 1.43184 212.636 1.44471C212.648 1.45759 212.654 1.47403 212.654 1.49099V3.23099C212.654 3.2469 212.647 3.26216 212.635 3.27341C212.624 3.28467 212.607 3.29099 212.59 3.29099H207.174C207.144 3.28823 207.115 3.29097 207.087 3.29905C207.058 3.30713 207.032 3.32038 207.01 3.33805C206.987 3.35571 206.968 3.37744 206.954 3.40197C206.941 3.42651 206.932 3.45336 206.929 3.48099V7.80099C206.935 7.85757 206.963 7.90999 207.009 7.94727C207.054 7.98455 207.113 8.0038 207.174 8.00099H224.231C224.291 8.0038 224.35 7.98455 224.396 7.94727C224.441 7.90999 224.47 7.85757 224.475 7.80099V3.48099C224.467 3.42621 224.438 3.37625 224.393 3.34105C224.347 3.30584 224.29 3.28797 224.231 3.29099H218.793C218.788 3.28187 218.785 3.27152 218.785 3.26099C218.785 3.25046 218.788 3.24011 218.793 3.23099V1.49099C218.787 1.48035 218.783 1.46828 218.783 1.45599C218.783 1.4437 218.787 1.43163 218.793 1.42099H232.494C232.512 1.42341 232.528 1.43184 232.54 1.44471C232.552 1.45759 232.558 1.47403 232.558 1.49099V3.23099C232.558 3.23887 232.556 3.24667 232.553 3.25395C232.55 3.26123 232.545 3.26784 232.539 3.27341C232.533 3.27899 232.526 3.28341 232.519 3.28642C232.511 3.28944 232.503 3.29099 232.494 3.29099H227.078C227.019 3.28797 226.961 3.30584 226.916 3.34105C226.871 3.37625 226.841 3.42621 226.833 3.48099V7.80099C226.839 7.85757 226.867 7.90999 226.913 7.94727C226.958 7.98455 227.017 8.0038 227.078 8.00099H244.135C244.195 8.0038 244.254 7.98455 244.3 7.94727C244.345 7.90999 244.374 7.85757 244.379 7.80099V3.48099C244.377 3.45336 244.368 3.42651 244.354 3.40197C244.341 3.37744 244.322 3.35571 244.299 3.33805C244.276 3.32038 244.25 3.30713 244.222 3.29905C244.194 3.29097 244.164 3.28823 244.135 3.29099H238.718C238.701 3.29099 238.685 3.28467 238.673 3.27341C238.661 3.26216 238.654 3.2469 238.654 3.23099V1.49099C238.654 1.47403 238.661 1.45759 238.672 1.44471C238.684 1.43184 238.7 1.42341 238.718 1.42099H252.398C252.398 1.42099 252.462 1.42099 252.462 1.49099V3.23099C252.462 3.2469 252.455 3.26216 252.443 3.27341C252.431 3.28467 252.415 3.29099 252.398 3.29099H246.992C246.932 3.2853 246.871 3.30194 246.824 3.3374C246.776 3.37286 246.745 3.42436 246.737 3.48099V7.80099C246.74 7.82992 246.748 7.85807 246.763 7.88382C246.777 7.90956 246.797 7.93239 246.82 7.95098C246.844 7.96958 246.871 7.98357 246.901 7.99215C246.93 8.00073 246.961 8.00374 246.992 8.00099H263.986C264.046 8.0038 264.105 7.98455 264.15 7.94727C264.196 7.90999 264.224 7.85757 264.23 7.80099V3.48099C264.227 3.45336 264.219 3.42651 264.205 3.40197C264.191 3.37744 264.172 3.35571 264.15 3.33805C264.127 3.32038 264.101 3.30713 264.073 3.29905C264.045 3.29097 264.015 3.28823 263.986 3.29099H258.622C258.605 3.29099 258.589 3.28467 258.577 3.27341C258.565 3.26216 258.558 3.2469 258.558 3.23099V1.49099C258.558 1.47403 258.564 1.45759 258.576 1.44471C258.588 1.43184 258.604 1.42341 258.622 1.42099H272.312C272.33 1.42341 272.347 1.43184 272.358 1.44471C272.37 1.45759 272.376 1.47403 272.376 1.49099V3.23099C272.376 3.2469 272.37 3.26216 272.358 3.27341C272.346 3.28467 272.329 3.29099 272.312 3.29099H266.896C266.866 3.28823 266.837 3.29097 266.809 3.29905C266.78 3.30713 266.754 3.32038 266.732 3.33805C266.709 3.35571 266.69 3.37744 266.676 3.40197C266.663 3.42651 266.654 3.45336 266.651 3.48099V7.80099C266.657 7.85757 266.685 7.90999 266.731 7.94727C266.776 7.98455 266.835 8.0038 266.896 8.00099H283.889C283.92 8.00374 283.951 8.00073 283.981 7.99215C284.01 7.98357 284.037 7.96958 284.061 7.95098C284.085 7.93239 284.104 7.90956 284.119 7.88382C284.133 7.85807 284.142 7.82992 284.144 7.80099V3.48099C284.136 3.42436 284.105 3.37286 284.058 3.3374C284.01 3.30194 283.95 3.2853 283.889 3.29099H278.483C278.466 3.29099 278.45 3.28467 278.438 3.27341C278.426 3.26216 278.42 3.2469 278.42 3.23099V1.49099C278.42 1.49099 278.42 1.42099 278.483 1.42099H292.163C292.181 1.42341 292.197 1.43184 292.209 1.44471C292.221 1.45759 292.227 1.47403 292.227 1.49099V3.23099C292.227 3.2469 292.22 3.26216 292.208 3.27341C292.196 3.28467 292.18 3.29099 292.163 3.29099H286.768C286.738 3.28823 286.709 3.29097 286.681 3.29905C286.652 3.30713 286.626 3.32038 286.603 3.33805C286.581 3.35571 286.562 3.37744 286.548 3.40197C286.535 3.42651 286.526 3.45336 286.523 3.48099V7.80099C286.529 7.85757 286.557 7.90999 286.603 7.94727C286.648 7.98455 286.707 8.0038 286.768 8.00099H303.825C303.885 8.0038 303.944 7.98455 303.99 7.94727C304.035 7.90999 304.064 7.85757 304.069 7.80099V3.48099C304.061 3.42621 304.032 3.37625 303.987 3.34105C303.941 3.30584 303.884 3.28797 303.825 3.29099H298.451C298.434 3.29099 298.418 3.28467 298.406 3.27341C298.394 3.26216 298.387 3.2469 298.387 3.23099V1.49099C298.387 1.49099 298.387 1.42099 298.451 1.42099H312.131C312.149 1.42341 312.165 1.43184 312.177 1.44471C312.188 1.45759 312.195 1.47403 312.194 1.49099V3.23099C312.194 3.2469 312.188 3.26216 312.176 3.27341C312.164 3.28467 312.148 3.29099 312.131 3.29099H306.714C306.655 3.28797 306.598 3.30584 306.552 3.34105C306.507 3.37625 306.478 3.42621 306.47 3.48099V7.80099C306.475 7.85757 306.504 7.90999 306.549 7.94727C306.595 7.98455 306.654 8.0038 306.714 8.00099H313.756C313.816 8.0038 313.875 7.98455 313.921 7.94727C313.966 7.90999 313.995 7.85757 314 7.80099V6.80099C313.997 6.77336 313.989 6.74651 313.975 6.72197C313.961 6.69744 313.943 6.67571 313.92 6.65805C313.897 6.64038 313.871 6.62713 313.843 6.61905C313.815 6.61097 313.785 6.60823 313.756 6.61099H308.339C308.321 6.60857 308.305 6.60013 308.293 6.58726C308.281 6.57439 308.275 6.55794 308.275 6.54099V4.77099C308.275 4.75507 308.282 4.73981 308.294 4.72856C308.306 4.71731 308.322 4.71099 308.339 4.71099H313.756C313.785 4.71374 313.815 4.711 313.843 4.70293C313.871 4.69485 313.897 4.68159 313.92 4.66393C313.943 4.64626 313.961 4.62454 313.975 4.6C313.989 4.57547 313.997 4.54861 314 4.52099V0.200988C313.995 0.144404 313.966 0.0919844 313.921 0.0547049C313.875 0.0174255 313.816 -0.00182367 313.756 0.000987686H296.762C296.702 -0.00182367 296.643 0.0174255 296.597 0.0547049C296.552 0.0919844 296.523 0.144404 296.518 0.200988V4.52099C296.52 4.54861 296.529 4.57547 296.543 4.6C296.556 4.62454 296.575 4.64626 296.598 4.66393C296.621 4.68159 296.647 4.69485 296.675 4.70293C296.703 4.711 296.733 4.71374 296.762 4.71099H302.179C302.196 4.71099 302.212 4.71731 302.224 4.72856C302.236 4.73981 302.243 4.75507 302.243 4.77099V6.51099C302.243 6.52794 302.236 6.54439 302.225 6.55726C302.213 6.57014 302.197 6.57857 302.179 6.58099H288.488C288.488 6.58099 288.425 6.58099 288.425 6.51099V4.77099C288.425 4.75507 288.431 4.73981 288.443 4.72856C288.455 4.71731 288.471 4.71099 288.488 4.71099H293.894C293.955 4.71668 294.015 4.70003 294.063 4.66457C294.11 4.62911 294.141 4.57762 294.149 4.52099V0.200988C294.147 0.172053 294.138 0.143901 294.124 0.118156C294.109 0.0924121 294.09 0.0695847 294.066 0.0509913C294.042 0.0323979 294.015 0.0184065 293.986 0.00982423C293.956 0.00124195 293.925 -0.00176132 293.894 0.000987686H276.848C276.787 -0.00182367 276.728 0.0174255 276.683 0.0547049C276.637 0.0919844 276.609 0.144404 276.603 0.200988V4.52099C276.606 4.54861 276.614 4.57547 276.628 4.6C276.642 4.62454 276.661 4.64626 276.683 4.66393C276.706 4.68159 276.732 4.69485 276.761 4.70293C276.789 4.711 276.818 4.71374 276.848 4.71099H282.264C282.281 4.71099 282.297 4.71731 282.309 4.72856C282.321 4.73981 282.328 4.75507 282.328 4.77099V6.51099C282.328 6.52794 282.322 6.54439 282.31 6.55726C282.298 6.57014 282.282 6.57857 282.264 6.58099H268.574C268.556 6.57857 268.54 6.57014 268.528 6.55726C268.516 6.54439 268.51 6.52794 268.51 6.51099V4.77099C268.51 4.75507 268.517 4.73981 268.529 4.72856C268.541 4.71731 268.557 4.71099 268.574 4.71099H274.022C274.052 4.71374 274.081 4.711 274.11 4.70293C274.138 4.69485 274.164 4.68159 274.187 4.66393C274.209 4.64626 274.228 4.62454 274.242 4.6C274.256 4.57547 274.264 4.54861 274.267 4.52099V0.200988C274.261 0.144404 274.233 0.0919844 274.187 0.0547049C274.142 0.0174255 274.083 -0.00182367 274.022 0.000987686H257.029C256.998 -0.00176132 256.967 0.00124195 256.938 0.00982423C256.908 0.0184065 256.881 0.0323979 256.857 0.0509913C256.833 0.0695847 256.814 0.0924121 256.8 0.118156C256.785 0.143901 256.777 0.172053 256.774 0.200988V4.52099C256.782 4.57762 256.813 4.62911 256.861 4.66457C256.908 4.70003 256.968 4.71668 257.029 4.71099H262.339C262.357 4.71081 262.375 4.7168 262.388 4.72784C262.402 4.73887 262.411 4.7542 262.414 4.77099V6.51099C262.414 6.52018 262.412 6.52928 262.408 6.53778C262.404 6.54627 262.399 6.55398 262.392 6.56048C262.385 6.56699 262.377 6.57214 262.368 6.57566C262.359 6.57918 262.349 6.58099 262.339 6.58099H248.67C248.652 6.57857 248.636 6.57014 248.624 6.55726C248.613 6.54439 248.606 6.52794 248.606 6.51099V4.77099C248.606 4.75507 248.613 4.73981 248.625 4.72856C248.637 4.71731 248.653 4.71099 248.67 4.71099H254.087C254.116 4.71374 254.146 4.711 254.174 4.70293C254.202 4.69485 254.228 4.68159 254.251 4.66393C254.274 4.64626 254.292 4.62454 254.306 4.6C254.32 4.57547 254.328 4.54861 254.331 4.52099V0.200988C254.326 0.144404 254.297 0.0919844 254.252 0.0547049C254.206 0.0174255 254.147 -0.00182367 254.087 0.000987686H237.029C236.969 -0.00182367 236.91 0.0174255 236.865 0.0547049C236.819 0.0919844 236.791 0.144404 236.785 0.200988V4.52099C236.793 4.57576 236.823 4.62572 236.868 4.66093C236.913 4.69613 236.971 4.71401 237.029 4.71099H242.446C242.455 4.71099 242.463 4.71254 242.471 4.71555C242.478 4.71857 242.485 4.72299 242.491 4.72856C242.497 4.73413 242.502 4.74075 242.505 4.74803C242.508 4.75531 242.51 4.76311 242.51 4.77099V6.51099C242.51 6.51099 242.51 6.58099 242.446 6.58099H228.766C228.748 6.57857 228.732 6.57014 228.72 6.55726C228.709 6.54439 228.702 6.52794 228.703 6.51099V4.77099C228.703 4.75507 228.709 4.73981 228.721 4.72856C228.733 4.71731 228.749 4.71099 228.766 4.71099H234.183C234.242 4.71401 234.299 4.69613 234.345 4.66093C234.39 4.62572 234.419 4.57576 234.427 4.52099V0.200988C234.422 0.144404 234.393 0.0919844 234.348 0.0547049C234.302 0.0174255 234.243 -0.00182367 234.183 0.000987686H217.126C217.065 -0.00182367 217.006 0.0174255 216.961 0.0547049C216.915 0.0919844 216.887 0.144404 216.881 0.200988V4.52099C216.884 4.54861 216.892 4.57547 216.906 4.6C216.92 4.62454 216.939 4.64626 216.961 4.66393C216.984 4.68159 217.01 4.69485 217.039 4.70293C217.067 4.711 217.096 4.71374 217.126 4.71099H222.542C222.559 4.71099 222.575 4.71731 222.587 4.72856C222.599 4.73981 222.606 4.75507 222.606 4.77099V6.51099C222.606 6.52794 222.6 6.54439 222.588 6.55726C222.576 6.57014 222.56 6.57857 222.542 6.58099H208.862C208.862 6.58099 208.799 6.58099 208.799 6.51099V4.77099C208.799 4.75507 208.805 4.73981 208.817 4.72856C208.829 4.71731 208.846 4.71099 208.862 4.71099H214.269C214.3 4.71669 214.333 4.71623 214.364 4.70962C214.395 4.70301 214.425 4.6904 214.451 4.67257C214.476 4.65475 214.498 4.63209 214.514 4.60601C214.531 4.57993 214.541 4.55099 214.545 4.52099V0.200988C214.542 0.172053 214.533 0.143901 214.519 0.118156C214.505 0.0924121 214.485 0.0695847 214.462 0.0509913C214.438 0.0323979 214.41 0.0184065 214.381 0.00982423C214.352 0.00124195 214.321 -0.00176132 214.29 0.000987686H197.222C197.162 -0.00182367 197.102 0.0174255 197.057 0.0547049C197.011 0.0919844 196.983 0.144404 196.978 0.200988V4.52099C196.98 4.54861 196.989 4.57547 197.002 4.6C197.016 4.62454 197.035 4.64626 197.058 4.66393C197.08 4.68159 197.107 4.69485 197.135 4.70293C197.163 4.711 197.193 4.71374 197.222 4.71099H202.639C202.655 4.71099 202.672 4.71731 202.684 4.72856C202.696 4.73981 202.702 4.75507 202.702 4.77099V6.51099C202.702 6.52794 202.696 6.54439 202.684 6.55726C202.673 6.57014 202.656 6.57857 202.639 6.58099H188.948C188.93 6.57857 188.914 6.57014 188.902 6.55726C188.89 6.54439 188.884 6.52794 188.884 6.51099V4.77099C188.884 4.75507 188.891 4.73981 188.903 4.72856C188.915 4.71731 188.931 4.71099 188.948 4.71099H194.365C194.394 4.71374 194.424 4.711 194.452 4.70293C194.48 4.69485 194.506 4.68159 194.529 4.66393C194.552 4.64626 194.57 4.62454 194.584 4.6C194.598 4.57547 194.606 4.54861 194.609 4.52099V0.200988C194.604 0.144404 194.575 0.0919844 194.53 0.0547049C194.484 0.0174255 194.425 -0.00182367 194.365 0.000987686H177.371C177.34 -0.00176132 177.309 0.00124195 177.28 0.00982423C177.25 0.0184065 177.223 0.0323979 177.199 0.0509913C177.176 0.0695847 177.156 0.0924121 177.142 0.118156C177.128 0.143901 177.119 0.172053 177.116 0.200988V4.52099C177.124 4.57762 177.155 4.62911 177.203 4.66457C177.25 4.70003 177.311 4.71668 177.371 4.71099H182.682C182.699 4.71099 182.715 4.71731 182.727 4.72856C182.739 4.73981 182.745 4.75507 182.745 4.77099V6.51099C182.745 6.51099 182.745 6.58099 182.682 6.58099H169.044C169.026 6.57857 169.01 6.57014 168.998 6.55726C168.987 6.54439 168.98 6.52794 168.981 6.51099V4.77099C168.981 4.76311 168.982 4.75531 168.985 4.74803C168.989 4.74075 168.993 4.73413 168.999 4.72856C169.005 4.72299 169.012 4.71857 169.02 4.71555C169.028 4.71254 169.036 4.71099 169.044 4.71099H174.461C174.49 4.71374 174.52 4.711 174.548 4.70293C174.576 4.69485 174.602 4.68159 174.625 4.66393C174.648 4.64626 174.667 4.62454 174.68 4.6C174.694 4.57547 174.703 4.54861 174.705 4.52099V0.200988C174.7 0.144404 174.671 0.0919844 174.626 0.0547049C174.58 0.0174255 174.521 -0.00182367 174.461 0.000987686H157.435C157.375 -0.00182367 157.316 0.0174255 157.271 0.0547049C157.225 0.0919844 157.197 0.144404 157.191 0.200988V4.52099C157.194 4.54861 157.202 4.57547 157.216 4.6C157.23 4.62454 157.249 4.64626 157.271 4.66393C157.294 4.68159 157.32 4.69485 157.348 4.70293C157.377 4.711 157.406 4.71374 157.435 4.71099H162.852C162.869 4.71099 162.885 4.71731 162.897 4.72856C162.909 4.73981 162.916 4.75507 162.916 4.77099V6.51099C162.916 6.52794 162.91 6.54439 162.898 6.55726C162.886 6.57014 162.87 6.57857 162.852 6.58099H157.457C157.422 6.57964 157.388 6.58485 157.356 6.5963C157.324 6.60776 157.294 6.62522 157.27 6.64765C157.245 6.67007 157.225 6.69698 157.212 6.72677C157.198 6.75656 157.191 6.78861 157.191 6.82099V8.00099" fill="white" fill-opacity="0.15"/>
<path d="M322.388 8.00099C322.449 8.0038 322.508 7.98455 322.554 7.94727C322.6 7.90999 322.629 7.85757 322.634 7.80099V3.48099C322.632 3.45336 322.623 3.42651 322.609 3.40197C322.595 3.37744 322.577 3.35571 322.554 3.33805C322.531 3.32038 322.504 3.30713 322.476 3.29905C322.447 3.29097 322.417 3.28823 322.388 3.29099H316.919C316.902 3.29099 316.886 3.28467 316.874 3.27341C316.862 3.26216 316.855 3.2469 316.855 3.23099V1.49099C316.855 1.47403 316.861 1.45759 316.873 1.44471C316.885 1.43184 316.901 1.42341 316.919 1.42099H330.73C330.73 1.42099 330.794 1.42099 330.794 1.49099V3.23099C330.794 3.2469 330.787 3.26216 330.775 3.27341C330.763 3.28467 330.747 3.29099 330.73 3.29099H325.272C325.211 3.2853 325.15 3.30194 325.102 3.3374C325.054 3.37286 325.023 3.42436 325.015 3.48099V7.80099C325.018 7.82992 325.026 7.85807 325.041 7.88382C325.055 7.90956 325.075 7.93239 325.099 7.95098C325.123 7.96958 325.15 7.98357 325.18 7.99215C325.21 8.00073 325.241 8.00374 325.272 8.00099H342.428C342.489 8.0038 342.549 7.98455 342.595 7.94727C342.641 7.90999 342.669 7.85757 342.675 7.80099V3.48099C342.672 3.45336 342.664 3.42651 342.65 3.40197C342.636 3.37744 342.617 3.35571 342.594 3.33805C342.571 3.32038 342.545 3.30713 342.516 3.29905C342.488 3.29097 342.458 3.28823 342.428 3.29099H336.96C336.943 3.29099 336.926 3.28467 336.914 3.27341C336.902 3.26216 336.895 3.2469 336.895 3.23099V1.49099C336.895 1.47403 336.902 1.45759 336.913 1.44471C336.925 1.43184 336.942 1.42341 336.96 1.42099H350.824C350.844 1.42099 350.863 1.42836 350.877 1.44149C350.891 1.45462 350.899 1.47242 350.899 1.49099V3.23099C350.896 3.24777 350.887 3.2631 350.873 3.27414C350.86 3.28517 350.842 3.29116 350.824 3.29099H345.366C345.337 3.28823 345.307 3.29097 345.278 3.29905C345.25 3.30713 345.223 3.32038 345.2 3.33805C345.177 3.35571 345.158 3.37744 345.145 3.40197C345.131 3.42651 345.122 3.45336 345.12 3.48099V7.80099C345.125 7.85757 345.154 7.90999 345.2 7.94727C345.246 7.98455 345.305 8.0038 345.366 8.00099H362.522C362.553 8.00374 362.584 8.00073 362.614 7.99215C362.644 7.98357 362.672 7.96958 362.695 7.95098C362.719 7.93239 362.739 7.90956 362.754 7.88382C362.768 7.85807 362.777 7.82992 362.779 7.80099V3.48099C362.771 3.42436 362.74 3.37286 362.692 3.3374C362.644 3.30194 362.583 3.2853 362.522 3.29099H357.118C357.101 3.29099 357.085 3.28467 357.072 3.27341C357.06 3.26216 357.054 3.2469 357.054 3.23099V1.49099C357.054 1.49099 357.054 1.42099 357.118 1.42099H370.929C370.947 1.42341 370.963 1.43184 370.975 1.44471C370.987 1.45759 370.993 1.47403 370.993 1.49099V3.23099C370.993 3.2469 370.986 3.26216 370.974 3.27341C370.962 3.28467 370.946 3.29099 370.929 3.29099H365.46C365.43 3.28823 365.401 3.29097 365.372 3.29905C365.344 3.30713 365.317 3.32038 365.294 3.33805C365.271 3.35571 365.252 3.37744 365.239 3.40197C365.225 3.42651 365.216 3.45336 365.213 3.48099V7.80099C365.219 7.85757 365.248 7.90999 365.294 7.94727C365.34 7.98455 365.399 8.0038 365.46 8.00099H382.68C382.741 8.0038 382.801 7.98455 382.847 7.94727C382.893 7.90999 382.922 7.85757 382.927 7.80099V3.48099C382.919 3.42621 382.889 3.37625 382.844 3.34105C382.798 3.30584 382.74 3.28797 382.68 3.29099H377.191C377.185 3.28187 377.182 3.27152 377.182 3.26099C377.182 3.25046 377.185 3.24011 377.191 3.23099V1.49099C377.184 1.48035 377.18 1.46828 377.18 1.45599C377.18 1.4437 377.184 1.43163 377.191 1.42099H391.023C391.041 1.42341 391.057 1.43184 391.069 1.44471C391.081 1.45759 391.087 1.47403 391.087 1.49099V3.23099C391.087 3.23887 391.085 3.24667 391.082 3.25395C391.079 3.26123 391.074 3.26784 391.068 3.27341C391.062 3.27899 391.055 3.28341 391.047 3.28642C391.039 3.28944 391.031 3.29099 391.023 3.29099H385.554C385.495 3.28797 385.437 3.30584 385.391 3.34105C385.345 3.37625 385.315 3.42621 385.307 3.48099V7.80099C385.313 7.85757 385.342 7.90999 385.388 7.94727C385.434 7.98455 385.493 8.0038 385.554 8.00099H402.774C402.835 8.0038 402.895 7.98455 402.941 7.94727C402.987 7.90999 403.016 7.85757 403.021 7.80099V3.48099C403.018 3.45336 403.01 3.42651 402.996 3.40197C402.982 3.37744 402.963 3.35571 402.94 3.33805C402.917 3.32038 402.891 3.30713 402.862 3.29905C402.834 3.29097 402.804 3.28823 402.774 3.29099H397.306C397.289 3.29099 397.272 3.28467 397.26 3.27341C397.248 3.26216 397.242 3.2469 397.242 3.23099V1.49099C397.241 1.47403 397.248 1.45759 397.26 1.44471C397.271 1.43184 397.288 1.42341 397.306 1.42099H411.116C411.116 1.42099 411.181 1.42099 411.181 1.49099V3.23099C411.181 3.2469 411.174 3.26216 411.162 3.27341C411.15 3.28467 411.134 3.29099 411.116 3.29099H405.659C405.598 3.2853 405.537 3.30194 405.489 3.3374C405.441 3.37286 405.409 3.42436 405.401 3.48099V7.80099C405.404 7.82992 405.413 7.85807 405.427 7.88382C405.442 7.90956 405.461 7.93239 405.485 7.95098C405.509 7.96958 405.537 7.98357 405.567 7.99215C405.596 8.00073 405.628 8.00374 405.659 8.00099H422.815C422.876 8.0038 422.935 7.98455 422.981 7.94727C423.027 7.90999 423.056 7.85757 423.061 7.80099V3.48099C423.059 3.45336 423.05 3.42651 423.036 3.40197C423.022 3.37744 423.003 3.35571 422.981 3.33805C422.958 3.32038 422.931 3.30713 422.903 3.29905C422.874 3.29097 422.844 3.28823 422.815 3.29099H417.4C417.383 3.29099 417.366 3.28467 417.354 3.27341C417.342 3.26216 417.336 3.2469 417.336 3.23099V1.49099C417.335 1.47403 417.342 1.45759 417.354 1.44471C417.365 1.43184 417.382 1.42341 417.4 1.42099H431.221C431.239 1.42341 431.256 1.43184 431.267 1.44471C431.279 1.45759 431.286 1.47403 431.286 1.49099V3.23099C431.286 3.2469 431.279 3.26216 431.267 3.27341C431.255 3.28467 431.238 3.29099 431.221 3.29099H425.753C425.723 3.28823 425.693 3.29097 425.665 3.29905C425.636 3.30713 425.61 3.32038 425.587 3.33805C425.564 3.35571 425.545 3.37744 425.531 3.40197C425.517 3.42651 425.509 3.45336 425.506 3.48099V7.80099C425.512 7.85757 425.54 7.90999 425.586 7.94727C425.632 7.98455 425.692 8.0038 425.753 8.00099H442.909C442.94 8.00374 442.971 8.00073 443.001 7.99215C443.03 7.98357 443.058 7.96958 443.082 7.95098C443.106 7.93239 443.126 7.90956 443.14 7.88382C443.155 7.85807 443.163 7.82992 443.166 7.80099V3.48099C443.158 3.42436 443.127 3.37286 443.079 3.3374C443.031 3.30194 442.97 3.2853 442.909 3.29099H437.451C437.434 3.29099 437.418 3.28467 437.405 3.27341C437.393 3.26216 437.387 3.2469 437.387 3.23099V1.49099C437.387 1.49099 437.387 1.42099 437.451 1.42099H451.262C451.28 1.42341 451.296 1.43184 451.308 1.44471C451.32 1.45759 451.326 1.47403 451.326 1.49099V3.23099C451.326 3.2469 451.319 3.26216 451.307 3.27341C451.295 3.28467 451.279 3.29099 451.262 3.29099H445.814C445.785 3.28823 445.755 3.29097 445.727 3.29905C445.698 3.30713 445.672 3.32038 445.649 3.33805C445.626 3.35571 445.607 3.37744 445.593 3.40197C445.579 3.42651 445.571 3.45336 445.568 3.48099V7.80099C445.573 7.85757 445.602 7.90999 445.648 7.94727C445.694 7.98455 445.754 8.0038 445.814 8.00099H463.035C463.096 8.0038 463.155 7.98455 463.201 7.94727C463.247 7.90999 463.276 7.85757 463.281 7.80099V3.48099C463.273 3.42621 463.244 3.37625 463.198 3.34105C463.152 3.30584 463.094 3.28797 463.035 3.29099H457.609C457.592 3.29099 457.576 3.28467 457.564 3.27341C457.552 3.26216 457.545 3.2469 457.545 3.23099V1.49099C457.545 1.49099 457.545 1.42099 457.609 1.42099H471.42C471.438 1.42341 471.454 1.43184 471.466 1.44471C471.478 1.45759 471.484 1.47403 471.484 1.49099V3.23099C471.484 3.2469 471.477 3.26216 471.465 3.27341C471.453 3.28467 471.437 3.29099 471.42 3.29099H465.951C465.892 3.28797 465.834 3.30584 465.788 3.34105C465.743 3.37625 465.713 3.42621 465.705 3.48099V7.80099C465.71 7.85757 465.739 7.90999 465.785 7.94727C465.831 7.98455 465.891 8.0038 465.951 8.00099H473.06C473.121 8.0038 473.181 7.98455 473.227 7.94727C473.273 7.90999 473.302 7.85757 473.307 7.80099V6.80099C473.304 6.77336 473.296 6.74651 473.282 6.72197C473.268 6.69744 473.249 6.67571 473.226 6.65805C473.203 6.64038 473.177 6.62713 473.148 6.61905C473.12 6.61097 473.09 6.60823 473.06 6.61099H467.592C467.574 6.60857 467.557 6.60013 467.546 6.58726C467.534 6.57439 467.527 6.55794 467.528 6.54099V4.77099C467.528 4.75507 467.534 4.73981 467.546 4.72856C467.558 4.71731 467.575 4.71099 467.592 4.71099H473.06C473.09 4.71374 473.12 4.711 473.148 4.70293C473.177 4.69485 473.203 4.68159 473.226 4.66393C473.249 4.64626 473.268 4.62454 473.282 4.6C473.296 4.57547 473.304 4.54861 473.307 4.52099V0.200988C473.302 0.144404 473.273 0.0919844 473.227 0.0547049C473.181 0.0174255 473.121 -0.00182367 473.06 0.000987686H455.904C455.844 -0.00182367 455.784 0.0174255 455.738 0.0547049C455.692 0.0919844 455.663 0.144404 455.658 0.200988V4.52099C455.66 4.54861 455.669 4.57547 455.683 4.6C455.697 4.62454 455.716 4.64626 455.739 4.66393C455.762 4.68159 455.788 4.69485 455.816 4.70293C455.845 4.711 455.875 4.71374 455.904 4.71099H461.373C461.39 4.71099 461.406 4.71731 461.418 4.72856C461.43 4.73981 461.437 4.75507 461.437 4.77099V6.51099C461.437 6.52794 461.431 6.54439 461.419 6.55726C461.407 6.57014 461.391 6.57857 461.373 6.58099H447.552C447.552 6.58099 447.487 6.58099 447.487 6.51099V4.77099C447.487 4.75507 447.494 4.73981 447.506 4.72856C447.518 4.71731 447.534 4.71099 447.552 4.71099H453.009C453.07 4.71668 453.131 4.70003 453.179 4.66457C453.227 4.62911 453.259 4.57762 453.267 4.52099V0.200988C453.264 0.172053 453.255 0.143901 453.241 0.118156C453.226 0.0924121 453.207 0.0695847 453.183 0.0509913C453.159 0.0323979 453.131 0.0184065 453.101 0.00982423C453.072 0.00124195 453.04 -0.00176132 453.009 0.000987686H435.8C435.739 -0.00182367 435.679 0.0174255 435.633 0.0547049C435.587 0.0919844 435.559 0.144404 435.553 0.200988V4.52099C435.556 4.54861 435.564 4.57547 435.578 4.6C435.592 4.62454 435.611 4.64626 435.634 4.66393C435.657 4.68159 435.683 4.69485 435.712 4.70293C435.74 4.711 435.77 4.71374 435.8 4.71099H441.268C441.285 4.71099 441.302 4.71731 441.314 4.72856C441.326 4.73981 441.332 4.75507 441.332 4.77099V6.51099C441.333 6.52794 441.326 6.54439 441.314 6.55726C441.303 6.57014 441.286 6.57857 441.268 6.58099H427.447C427.429 6.57857 427.412 6.57014 427.401 6.55726C427.389 6.54439 427.382 6.52794 427.383 6.51099V4.77099C427.383 4.75507 427.389 4.73981 427.401 4.72856C427.413 4.71731 427.43 4.71099 427.447 4.71099H432.948C432.977 4.71374 433.007 4.711 433.035 4.70293C433.064 4.69485 433.09 4.68159 433.113 4.66393C433.136 4.64626 433.155 4.62454 433.169 4.6C433.183 4.57547 433.191 4.54861 433.194 4.52099V0.200988C433.189 0.144404 433.16 0.0919844 433.114 0.0547049C433.068 0.0174255 433.008 -0.00182367 432.948 0.000987686H415.792C415.76 -0.00176132 415.729 0.00124195 415.699 0.00982423C415.67 0.0184065 415.642 0.0323979 415.618 0.0509913C415.594 0.0695847 415.574 0.0924121 415.56 0.118156C415.546 0.143901 415.537 0.172053 415.534 0.200988V4.52099C415.542 4.57762 415.574 4.62911 415.622 4.66457C415.67 4.70003 415.731 4.71668 415.792 4.71099H421.153C421.171 4.71081 421.189 4.7168 421.202 4.72784C421.216 4.73887 421.225 4.7542 421.228 4.77099V6.51099C421.228 6.52018 421.226 6.52928 421.222 6.53778C421.218 6.54627 421.213 6.55398 421.206 6.56048C421.199 6.56699 421.191 6.57214 421.181 6.57566C421.172 6.57918 421.163 6.58099 421.153 6.58099H407.353C407.335 6.57857 407.318 6.57014 407.307 6.55726C407.295 6.54439 407.288 6.52794 407.289 6.51099V4.77099C407.289 4.75507 407.295 4.73981 407.307 4.72856C407.319 4.71731 407.336 4.71099 407.353 4.71099H412.821C412.851 4.71374 412.881 4.711 412.909 4.70293C412.938 4.69485 412.964 4.68159 412.987 4.66393C413.01 4.64626 413.029 4.62454 413.043 4.6C413.057 4.57547 413.065 4.54861 413.068 4.52099V0.200988C413.063 0.144404 413.034 0.0919844 412.988 0.0547049C412.942 0.0174255 412.882 -0.00182367 412.821 0.000987686H395.601C395.54 -0.00182367 395.481 0.0174255 395.435 0.0547049C395.389 0.0919844 395.36 0.144404 395.354 0.200988V4.52099C395.362 4.57576 395.392 4.62572 395.438 4.66093C395.484 4.69613 395.542 4.71401 395.601 4.71099H401.07C401.078 4.71099 401.086 4.71254 401.094 4.71555C401.102 4.71857 401.109 4.72299 401.115 4.72856C401.121 4.73413 401.126 4.74075 401.129 4.74803C401.132 4.75531 401.134 4.76311 401.134 4.77099V6.51099C401.134 6.51099 401.134 6.58099 401.07 6.58099H387.259C387.241 6.57857 387.224 6.57014 387.213 6.55726C387.201 6.54439 387.194 6.52794 387.195 6.51099V4.77099C387.195 4.75507 387.201 4.73981 387.213 4.72856C387.226 4.71731 387.242 4.71099 387.259 4.71099H392.727C392.787 4.71401 392.845 4.69613 392.891 4.66093C392.936 4.62572 392.966 4.57576 392.974 4.52099V0.200988C392.969 0.144404 392.94 0.0919844 392.894 0.0547049C392.848 0.0174255 392.788 -0.00182367 392.727 0.000987686H375.507C375.446 -0.00182367 375.387 0.0174255 375.341 0.0547049C375.295 0.0919844 375.266 0.144404 375.26 0.200988V4.52099C375.263 4.54861 375.272 4.57547 375.286 4.6C375.299 4.62454 375.318 4.64626 375.341 4.66393C375.364 4.68159 375.391 4.69485 375.419 4.70293C375.448 4.711 375.477 4.71374 375.507 4.71099H380.976C380.993 4.71099 381.009 4.71731 381.021 4.72856C381.033 4.73981 381.04 4.75507 381.04 4.77099V6.51099C381.04 6.52794 381.034 6.54439 381.022 6.55726C381.01 6.57014 380.994 6.57857 380.976 6.58099H367.165C367.165 6.58099 367.101 6.58099 367.101 6.51099V4.77099C367.101 4.75507 367.107 4.73981 367.119 4.72856C367.132 4.71731 367.148 4.71099 367.165 4.71099H372.623C372.655 4.71669 372.687 4.71623 372.719 4.70962C372.75 4.70301 372.78 4.6904 372.806 4.67257C372.833 4.65475 372.855 4.63209 372.871 4.60601C372.887 4.57993 372.898 4.55099 372.902 4.52099V0.200988C372.899 0.172053 372.89 0.143901 372.876 0.118156C372.861 0.0924121 372.841 0.0695847 372.818 0.0509913C372.794 0.0323979 372.766 0.0184065 372.736 0.00982423C372.706 0.00124195 372.675 -0.00176132 372.644 0.000987686H355.413C355.352 -0.00182367 355.293 0.0174255 355.247 0.0547049C355.201 0.0919844 355.172 0.144404 355.166 0.200988V4.52099C355.169 4.54861 355.178 4.57547 355.192 4.6C355.205 4.62454 355.224 4.64626 355.247 4.66393C355.27 4.68159 355.297 4.69485 355.325 4.70293C355.354 4.711 355.384 4.71374 355.413 4.71099H360.882C360.899 4.71099 360.915 4.71731 360.927 4.72856C360.939 4.73981 360.946 4.75507 360.946 4.77099V6.51099C360.946 6.52794 360.94 6.54439 360.928 6.55726C360.916 6.57014 360.9 6.57857 360.882 6.58099H347.06C347.042 6.57857 347.026 6.57014 347.014 6.55726C347.002 6.54439 346.996 6.52794 346.996 6.51099V4.77099C346.996 4.75507 347.003 4.73981 347.015 4.72856C347.027 4.71731 347.043 4.71099 347.06 4.71099H352.529C352.558 4.71374 352.588 4.711 352.617 4.70293C352.645 4.69485 352.672 4.68159 352.695 4.66393C352.717 4.64626 352.736 4.62454 352.75 4.6C352.764 4.57547 352.773 4.54861 352.775 4.52099V0.200988C352.77 0.144404 352.741 0.0919844 352.695 0.0547049C352.649 0.0174255 352.59 -0.00182367 352.529 0.000987686H335.373C335.342 -0.00176132 335.31 0.00124195 335.281 0.00982423C335.251 0.0184065 335.223 0.0323979 335.199 0.0509913C335.175 0.0695847 335.156 0.0924121 335.141 0.118156C335.127 0.143901 335.118 0.172053 335.115 0.200988V4.52099C335.123 4.57762 335.155 4.62911 335.203 4.66457C335.251 4.70003 335.312 4.71668 335.373 4.71099H340.734C340.751 4.71099 340.767 4.71731 340.779 4.72856C340.792 4.73981 340.798 4.75507 340.798 4.77099V6.51099C340.798 6.51099 340.798 6.58099 340.734 6.58099H326.966C326.948 6.57857 326.932 6.57014 326.92 6.55726C326.908 6.54439 326.902 6.52794 326.902 6.51099V4.77099C326.902 4.76311 326.904 4.75531 326.907 4.74803C326.91 4.74075 326.915 4.73413 326.921 4.72856C326.927 4.72299 326.934 4.71857 326.942 4.71555C326.949 4.71254 326.958 4.71099 326.966 4.71099H332.435C332.464 4.71374 332.494 4.711 332.523 4.70293C332.551 4.69485 332.578 4.68159 332.601 4.66393C332.623 4.64626 332.642 4.62454 332.656 4.6C332.67 4.57547 332.679 4.54861 332.681 4.52099V0.200988C332.676 0.144404 332.647 0.0919844 332.601 0.0547049C332.555 0.0174255 332.496 -0.00182367 332.435 0.000987686H315.247C315.186 -0.00182367 315.126 0.0174255 315.08 0.0547049C315.034 0.0919844 315.005 0.144404 315 0.200988V4.52099C315.003 4.54861 315.011 4.57547 315.025 4.6C315.039 4.62454 315.058 4.64626 315.081 4.66393C315.104 4.68159 315.13 4.69485 315.159 4.70293C315.187 4.711 315.217 4.71374 315.247 4.71099H320.715C320.732 4.71099 320.749 4.71731 320.761 4.72856C320.773 4.73981 320.779 4.75507 320.779 4.77099V6.51099C320.78 6.52794 320.773 6.54439 320.761 6.55726C320.75 6.57014 320.733 6.57857 320.715 6.58099H315.268C315.233 6.57964 315.199 6.58485 315.166 6.5963C315.134 6.60776 315.104 6.62522 315.079 6.64765C315.054 6.67007 315.034 6.69698 315.021 6.72677C315.007 6.75656 315 6.78861 315 6.82099V8.00099" fill="white" fill-opacity="0.15"/>
<path d="M481.081 8.00099C481.142 8.0038 481.201 7.98455 481.247 7.94727C481.293 7.90999 481.322 7.85757 481.327 7.80099V3.48099C481.325 3.45336 481.316 3.42651 481.302 3.40197C481.288 3.37744 481.27 3.35571 481.247 3.33805C481.224 3.32038 481.197 3.30713 481.169 3.29905C481.14 3.29097 481.11 3.28823 481.081 3.29099H475.612C475.595 3.29099 475.579 3.28467 475.567 3.27341C475.555 3.26216 475.548 3.2469 475.548 3.23099V1.49099C475.548 1.47403 475.554 1.45759 475.566 1.44471C475.578 1.43184 475.594 1.42341 475.612 1.42099H489.423C489.423 1.42099 489.487 1.42099 489.487 1.49099V3.23099C489.487 3.2469 489.48 3.26216 489.468 3.27341C489.456 3.28467 489.44 3.29099 489.423 3.29099H483.965C483.904 3.2853 483.843 3.30194 483.795 3.3374C483.747 3.37286 483.716 3.42436 483.708 3.48099V7.80099C483.711 7.82992 483.719 7.85807 483.734 7.88382C483.748 7.90956 483.768 7.93239 483.792 7.95098C483.816 7.96958 483.843 7.98357 483.873 7.99215C483.903 8.00073 483.934 8.00374 483.965 8.00099H501.121C501.182 8.0038 501.242 7.98455 501.288 7.94727C501.334 7.90999 501.362 7.85757 501.368 7.80099V3.48099C501.365 3.45336 501.357 3.42651 501.343 3.40197C501.329 3.37744 501.31 3.35571 501.287 3.33805C501.264 3.32038 501.238 3.30713 501.209 3.29905C501.181 3.29097 501.151 3.28823 501.121 3.29099H495.653C495.636 3.29099 495.619 3.28467 495.607 3.27341C495.595 3.26216 495.588 3.2469 495.588 3.23099V1.49099C495.588 1.47403 495.595 1.45759 495.606 1.44471C495.618 1.43184 495.635 1.42341 495.653 1.42099H509.517C509.537 1.42099 509.556 1.42836 509.57 1.44149C509.584 1.45462 509.592 1.47242 509.592 1.49099V3.23099C509.589 3.24777 509.58 3.2631 509.566 3.27414C509.553 3.28517 509.535 3.29116 509.517 3.29099H504.059C504.03 3.28823 504 3.29097 503.971 3.29905C503.943 3.30713 503.916 3.32038 503.893 3.33805C503.87 3.35571 503.851 3.37744 503.838 3.40197C503.824 3.42651 503.815 3.45336 503.812 3.48099V7.80099C503.818 7.85757 503.847 7.90999 503.893 7.94727C503.939 7.98455 503.998 8.0038 504.059 8.00099H521.215C521.246 8.00374 521.277 8.00073 521.307 7.99215C521.337 7.98357 521.365 7.96958 521.388 7.95098C521.412 7.93239 521.432 7.90956 521.447 7.88382C521.461 7.85807 521.47 7.82992 521.472 7.80099V3.48099C521.464 3.42436 521.433 3.37286 521.385 3.3374C521.337 3.30194 521.276 3.2853 521.215 3.29099H515.811C515.794 3.29099 515.778 3.28467 515.766 3.27341C515.753 3.26216 515.747 3.2469 515.747 3.23099V1.49099C515.747 1.49099 515.747 1.42099 515.811 1.42099H529.622C529.64 1.42341 529.656 1.43184 529.668 1.44471C529.68 1.45759 529.686 1.47403 529.686 1.49099V3.23099C529.686 3.2469 529.679 3.26216 529.667 3.27341C529.655 3.28467 529.639 3.29099 529.622 3.29099H524.153C524.123 3.28823 524.094 3.29097 524.065 3.29905C524.037 3.30713 524.01 3.32038 523.987 3.33805C523.964 3.35571 523.945 3.37744 523.932 3.40197C523.918 3.42651 523.909 3.45336 523.906 3.48099V7.80099C523.912 7.85757 523.941 7.90999 523.987 7.94727C524.033 7.98455 524.092 8.0038 524.153 8.00099H541.373C541.434 8.0038 541.494 7.98455 541.54 7.94727C541.586 7.90999 541.615 7.85757 541.62 7.80099V3.48099C541.612 3.42621 541.582 3.37625 541.537 3.34105C541.491 3.30584 541.433 3.28797 541.373 3.29099H535.883C535.878 3.28187 535.875 3.27152 535.875 3.26099C535.875 3.25046 535.878 3.24011 535.883 3.23099V1.49099C535.877 1.48035 535.873 1.46828 535.873 1.45599C535.873 1.4437 535.877 1.43163 535.883 1.42099H549.716C549.734 1.42341 549.75 1.43184 549.762 1.44471C549.774 1.45759 549.78 1.47403 549.78 1.49099V3.23099C549.78 3.23887 549.778 3.24667 549.775 3.25395C549.772 3.26123 549.767 3.26784 549.761 3.27341C549.755 3.27899 549.748 3.28341 549.74 3.28642C549.732 3.28944 549.724 3.29099 549.716 3.29099H544.247C544.188 3.28797 544.13 3.30584 544.084 3.34105C544.038 3.37625 544.008 3.42621 544 3.48099V7.80099C544.006 7.85757 544.035 7.90999 544.081 7.94727C544.127 7.98455 544.186 8.0038 544.247 8.00099H561.467C561.528 8.0038 561.588 7.98455 561.634 7.94727C561.68 7.90999 561.709 7.85757 561.714 7.80099V3.48099C561.711 3.45336 561.703 3.42651 561.689 3.40197C561.675 3.37744 561.656 3.35571 561.633 3.33805C561.61 3.32038 561.584 3.30713 561.555 3.29905C561.527 3.29097 561.497 3.28823 561.467 3.29099H555.999C555.982 3.29099 555.965 3.28467 555.953 3.27341C555.941 3.26216 555.935 3.2469 555.935 3.23099V1.49099C555.934 1.47403 555.941 1.45759 555.953 1.44471C555.964 1.43184 555.981 1.42341 555.999 1.42099H569.81C569.81 1.42099 569.874 1.42099 569.874 1.49099V3.23099C569.874 3.2469 569.867 3.26216 569.855 3.27341C569.843 3.28467 569.827 3.29099 569.81 3.29099H564.352C564.291 3.2853 564.23 3.30194 564.182 3.3374C564.134 3.37286 564.102 3.42436 564.094 3.48099V7.80099C564.097 7.82992 564.106 7.85807 564.12 7.88382C564.135 7.90956 564.154 7.93239 564.178 7.95098C564.202 7.96958 564.23 7.98357 564.26 7.99215C564.289 8.00073 564.321 8.00374 564.352 8.00099H581.508C581.569 8.0038 581.628 7.98455 581.674 7.94727C581.72 7.90999 581.749 7.85757 581.754 7.80099V3.48099C581.752 3.45336 581.743 3.42651 581.729 3.40197C581.715 3.37744 581.696 3.35571 581.673 3.33805C581.651 3.32038 581.624 3.30713 581.596 3.29905C581.567 3.29097 581.537 3.28823 581.508 3.29099H576.093C576.076 3.29099 576.059 3.28467 576.047 3.27341C576.035 3.26216 576.029 3.2469 576.029 3.23099V1.49099C576.028 1.47403 576.035 1.45759 576.047 1.44471C576.058 1.43184 576.075 1.42341 576.093 1.42099H589.914C589.932 1.42341 589.949 1.43184 589.96 1.44471C589.972 1.45759 589.979 1.47403 589.979 1.49099V3.23099C589.979 3.2469 589.972 3.26216 589.96 3.27341C589.948 3.28467 589.931 3.29099 589.914 3.29099H584.446C584.416 3.28823 584.386 3.29097 584.358 3.29905C584.329 3.30713 584.303 3.32038 584.28 3.33805C584.257 3.35571 584.238 3.37744 584.224 3.40197C584.21 3.42651 584.202 3.45336 584.199 3.48099V7.80099C584.205 7.85757 584.233 7.90999 584.279 7.94727C584.325 7.98455 584.385 8.0038 584.446 8.00099H601.602C601.633 8.00374 601.664 8.00073 601.694 7.99215C601.723 7.98357 601.751 7.96958 601.775 7.95098C601.799 7.93239 601.819 7.90956 601.833 7.88382C601.848 7.85807 601.856 7.82992 601.859 7.80099V3.48099C601.851 3.42436 601.82 3.37286 601.772 3.3374C601.724 3.30194 601.663 3.2853 601.602 3.29099H596.144C596.127 3.29099 596.111 3.28467 596.098 3.27341C596.086 3.26216 596.08 3.2469 596.08 3.23099V1.49099C596.08 1.49099 596.08 1.42099 596.144 1.42099H609.955C609.973 1.42341 609.989 1.43184 610.001 1.44471C610.013 1.45759 610.019 1.47403 610.019 1.49099V3.23099C610.019 3.2469 610.012 3.26216 610 3.27341C609.988 3.28467 609.972 3.29099 609.955 3.29099H604.508C604.478 3.28823 604.448 3.29097 604.42 3.29905C604.391 3.30713 604.365 3.32038 604.342 3.33805C604.319 3.35571 604.3 3.37744 604.286 3.40197C604.272 3.42651 604.264 3.45336 604.261 3.48099V7.80099C604.266 7.85757 604.295 7.90999 604.341 7.94727C604.387 7.98455 604.447 8.0038 604.508 8.00099H621.728C621.789 8.0038 621.848 7.98455 621.894 7.94727C621.94 7.90999 621.969 7.85757 621.974 7.80099V3.48099C621.966 3.42621 621.937 3.37625 621.891 3.34105C621.845 3.30584 621.787 3.28797 621.728 3.29099H616.302C616.285 3.29099 616.269 3.28467 616.257 3.27341C616.245 3.26216 616.238 3.2469 616.238 3.23099V1.49099C616.238 1.49099 616.238 1.42099 616.302 1.42099H630.113C630.131 1.42341 630.147 1.43184 630.159 1.44471C630.171 1.45759 630.177 1.47403 630.177 1.49099V3.23099C630.177 3.2469 630.17 3.26216 630.158 3.27341C630.146 3.28467 630.13 3.29099 630.113 3.29099H624.644C624.585 3.28797 624.527 3.30584 624.481 3.34105C624.436 3.37625 624.406 3.42621 624.398 3.48099V7.80099C624.403 7.85757 624.432 7.90999 624.478 7.94727C624.524 7.98455 624.584 8.0038 624.644 8.00099H631.753C631.814 8.0038 631.874 7.98455 631.92 7.94727C631.966 7.90999 631.995 7.85757 632 7.80099V6.80099C631.997 6.77336 631.989 6.74651 631.975 6.72197C631.961 6.69744 631.942 6.67571 631.919 6.65805C631.896 6.64038 631.87 6.62713 631.841 6.61905C631.813 6.61097 631.783 6.60823 631.753 6.61099H626.285C626.267 6.60857 626.25 6.60013 626.239 6.58726C626.227 6.57439 626.22 6.55794 626.221 6.54099V4.77099C626.221 4.75507 626.227 4.73981 626.239 4.72856C626.251 4.71731 626.268 4.71099 626.285 4.71099H631.753C631.783 4.71374 631.813 4.711 631.841 4.70293C631.87 4.69485 631.896 4.68159 631.919 4.66393C631.942 4.64626 631.961 4.62454 631.975 4.6C631.989 4.57547 631.997 4.54861 632 4.52099V0.200988C631.995 0.144404 631.966 0.0919844 631.92 0.0547049C631.874 0.0174255 631.814 -0.00182367 631.753 0.000987686H614.597C614.537 -0.00182367 614.477 0.0174255 614.431 0.0547049C614.385 0.0919844 614.356 0.144404 614.351 0.200988V4.52099C614.353 4.54861 614.362 4.57547 614.376 4.6C614.39 4.62454 614.409 4.64626 614.432 4.66393C614.455 4.68159 614.481 4.69485 614.509 4.70293C614.538 4.711 614.568 4.71374 614.597 4.71099H620.066C620.083 4.71099 620.099 4.71731 620.111 4.72856C620.123 4.73981 620.13 4.75507 620.13 4.77099V6.51099C620.13 6.52794 620.124 6.54439 620.112 6.55726C620.1 6.57014 620.084 6.57857 620.066 6.58099H606.245C606.245 6.58099 606.18 6.58099 606.18 6.51099V4.77099C606.18 4.75507 606.187 4.73981 606.199 4.72856C606.211 4.71731 606.227 4.71099 606.245 4.71099H611.702C611.763 4.71668 611.824 4.70003 611.872 4.66457C611.92 4.62911 611.952 4.57762 611.96 4.52099V0.200988C611.957 0.172053 611.948 0.143901 611.934 0.118156C611.919 0.0924121 611.9 0.0695847 611.876 0.0509913C611.852 0.0323979 611.824 0.0184065 611.794 0.00982423C611.765 0.00124195 611.733 -0.00176132 611.702 0.000987686H594.493C594.432 -0.00182367 594.372 0.0174255 594.326 0.0547049C594.28 0.0919844 594.252 0.144404 594.246 0.200988V4.52099C594.249 4.54861 594.257 4.57547 594.271 4.6C594.285 4.62454 594.304 4.64626 594.327 4.66393C594.35 4.68159 594.376 4.69485 594.405 4.70293C594.433 4.711 594.463 4.71374 594.493 4.71099H599.961C599.978 4.71099 599.995 4.71731 600.007 4.72856C600.019 4.73981 600.026 4.75507 600.026 4.77099V6.51099C600.026 6.52794 600.019 6.54439 600.007 6.55726C599.996 6.57014 599.979 6.57857 599.961 6.58099H586.14C586.122 6.57857 586.105 6.57014 586.094 6.55726C586.082 6.54439 586.075 6.52794 586.076 6.51099V4.77099C586.076 4.75507 586.082 4.73981 586.094 4.72856C586.106 4.71731 586.123 4.71099 586.14 4.71099H591.641C591.67 4.71374 591.7 4.711 591.728 4.70293C591.757 4.69485 591.783 4.68159 591.806 4.66393C591.829 4.64626 591.848 4.62454 591.862 4.6C591.876 4.57547 591.884 4.54861 591.887 4.52099V0.200988C591.882 0.144404 591.853 0.0919844 591.807 0.0547049C591.761 0.0174255 591.701 -0.00182367 591.641 0.000987686H574.484C574.453 -0.00176132 574.422 0.00124195 574.392 0.00982423C574.363 0.0184065 574.335 0.0323979 574.311 0.0509913C574.287 0.0695847 574.268 0.0924121 574.253 0.118156C574.239 0.143901 574.23 0.172053 574.227 0.200988V4.52099C574.235 4.57762 574.267 4.62911 574.315 4.66457C574.363 4.70003 574.424 4.71668 574.484 4.71099H579.846C579.864 4.71081 579.882 4.7168 579.895 4.72784C579.909 4.73887 579.918 4.7542 579.921 4.77099V6.51099C579.921 6.52018 579.919 6.52928 579.915 6.53778C579.911 6.54627 579.906 6.55398 579.899 6.56048C579.892 6.56699 579.884 6.57214 579.874 6.57566C579.865 6.57918 579.856 6.58099 579.846 6.58099H566.046C566.028 6.57857 566.011 6.57014 566 6.55726C565.988 6.54439 565.981 6.52794 565.982 6.51099V4.77099C565.982 4.75507 565.988 4.73981 566 4.72856C566.012 4.71731 566.029 4.71099 566.046 4.71099H571.514C571.544 4.71374 571.574 4.711 571.602 4.70293C571.631 4.69485 571.657 4.68159 571.68 4.66393C571.703 4.64626 571.722 4.62454 571.736 4.6C571.75 4.57547 571.758 4.54861 571.761 4.52099V0.200988C571.756 0.144404 571.727 0.0919844 571.681 0.0547049C571.635 0.0174255 571.575 -0.00182367 571.514 0.000987686H554.294C554.233 -0.00182367 554.174 0.0174255 554.128 0.0547049C554.082 0.0919844 554.053 0.144404 554.047 0.200988V4.52099C554.055 4.57576 554.085 4.62572 554.131 4.66093C554.177 4.69613 554.235 4.71401 554.294 4.71099H559.762C559.771 4.71099 559.779 4.71254 559.787 4.71555C559.795 4.71857 559.802 4.72299 559.808 4.72856C559.814 4.73413 559.819 4.74075 559.822 4.74803C559.825 4.75531 559.827 4.76311 559.827 4.77099V6.51099C559.827 6.51099 559.827 6.58099 559.762 6.58099H545.952C545.934 6.57857 545.917 6.57014 545.906 6.55726C545.894 6.54439 545.887 6.52794 545.888 6.51099V4.77099C545.888 4.75507 545.894 4.73981 545.906 4.72856C545.918 4.71731 545.935 4.71099 545.952 4.71099H551.42C551.48 4.71401 551.538 4.69613 551.584 4.66093C551.629 4.62572 551.659 4.57576 551.667 4.52099V0.200988C551.662 0.144404 551.633 0.0919844 551.587 0.0547049C551.541 0.0174255 551.481 -0.00182367 551.42 0.000987686H534.2C534.139 -0.00182367 534.08 0.0174255 534.034 0.0547049C533.988 0.0919844 533.959 0.144404 533.953 0.200988V4.52099C533.956 4.54861 533.965 4.57547 533.979 4.6C533.992 4.62454 534.011 4.64626 534.034 4.66393C534.057 4.68159 534.084 4.69485 534.112 4.70293C534.141 4.711 534.17 4.71374 534.2 4.71099H539.669C539.686 4.71099 539.702 4.71731 539.714 4.72856C539.726 4.73981 539.733 4.75507 539.733 4.77099V6.51099C539.733 6.52794 539.727 6.54439 539.715 6.55726C539.703 6.57014 539.687 6.57857 539.669 6.58099H525.858C525.858 6.58099 525.794 6.58099 525.794 6.51099V4.77099C525.794 4.75507 525.8 4.73981 525.812 4.72856C525.825 4.71731 525.841 4.71099 525.858 4.71099H531.316C531.348 4.71669 531.38 4.71623 531.412 4.70962C531.443 4.70301 531.473 4.6904 531.499 4.67257C531.526 4.65475 531.548 4.63209 531.564 4.60601C531.58 4.57993 531.591 4.55099 531.594 4.52099V0.200988C531.592 0.172053 531.583 0.143901 531.569 0.118156C531.554 0.0924121 531.534 0.0695847 531.51 0.0509913C531.487 0.0323979 531.459 0.0184065 531.429 0.00982423C531.399 0.00124195 531.368 -0.00176132 531.337 0.000987686H514.106C514.045 -0.00182367 513.986 0.0174255 513.94 0.0547049C513.894 0.0919844 513.865 0.144404 513.859 0.200988V4.52099C513.862 4.54861 513.871 4.57547 513.885 4.6C513.898 4.62454 513.917 4.64626 513.94 4.66393C513.963 4.68159 513.99 4.69485 514.018 4.70293C514.047 4.711 514.077 4.71374 514.106 4.71099H519.575C519.592 4.71099 519.608 4.71731 519.62 4.72856C519.632 4.73981 519.639 4.75507 519.639 4.77099V6.51099C519.639 6.52794 519.633 6.54439 519.621 6.55726C519.609 6.57014 519.593 6.57857 519.575 6.58099H505.753C505.735 6.57857 505.719 6.57014 505.707 6.55726C505.695 6.54439 505.689 6.52794 505.689 6.51099V4.77099C505.689 4.75507 505.696 4.73981 505.708 4.72856C505.72 4.71731 505.736 4.71099 505.753 4.71099H511.222C511.251 4.71374 511.281 4.711 511.31 4.70293C511.338 4.69485 511.365 4.68159 511.388 4.66393C511.41 4.64626 511.429 4.62454 511.443 4.6C511.457 4.57547 511.466 4.54861 511.468 4.52099V0.200988C511.463 0.144404 511.434 0.0919844 511.388 0.0547049C511.342 0.0174255 511.283 -0.00182367 511.222 0.000987686H494.066C494.035 -0.00176132 494.003 0.00124195 493.974 0.00982423C493.944 0.0184065 493.916 0.0323979 493.892 0.0509913C493.868 0.0695847 493.849 0.0924121 493.834 0.118156C493.82 0.143901 493.811 0.172053 493.808 0.200988V4.52099C493.816 4.57762 493.848 4.62911 493.896 4.66457C493.944 4.70003 494.005 4.71668 494.066 4.71099H499.427C499.444 4.71099 499.46 4.71731 499.472 4.72856C499.485 4.73981 499.491 4.75507 499.491 4.77099V6.51099C499.491 6.51099 499.491 6.58099 499.427 6.58099H485.659C485.641 6.57857 485.625 6.57014 485.613 6.55726C485.601 6.54439 485.595 6.52794 485.595 6.51099V4.77099C485.595 4.76311 485.597 4.75531 485.6 4.74803C485.603 4.74075 485.608 4.73413 485.614 4.72856C485.62 4.72299 485.627 4.71857 485.635 4.71555C485.643 4.71254 485.651 4.71099 485.659 4.71099H491.128C491.157 4.71374 491.187 4.711 491.216 4.70293C491.244 4.69485 491.271 4.68159 491.294 4.66393C491.316 4.64626 491.335 4.62454 491.349 4.6C491.363 4.57547 491.372 4.54861 491.374 4.52099V0.200988C491.369 0.144404 491.34 0.0919844 491.294 0.0547049C491.248 0.0174255 491.189 -0.00182367 491.128 0.000987686H473.94C473.879 -0.00182367 473.819 0.0174255 473.773 0.0547049C473.727 0.0919844 473.698 0.144404 473.693 0.200988V4.52099C473.696 4.54861 473.704 4.57547 473.718 4.6C473.732 4.62454 473.751 4.64626 473.774 4.66393C473.797 4.68159 473.823 4.69485 473.852 4.70293C473.88 4.711 473.91 4.71374 473.94 4.71099H479.408C479.425 4.71099 479.442 4.71731 479.454 4.72856C479.466 4.73981 479.472 4.75507 479.472 4.77099V6.51099C479.473 6.52794 479.466 6.54439 479.454 6.55726C479.443 6.57014 479.426 6.57857 479.408 6.58099H473.961C473.926 6.57964 473.892 6.58485 473.859 6.5963C473.827 6.60776 473.797 6.62522 473.772 6.64765C473.747 6.67007 473.727 6.69698 473.714 6.72677C473.7 6.75656 473.693 6.78861 473.693 6.82099V8.00099" fill="white" fill-opacity="0.15"/>
</svg>
